<?xml version="1.0" encoding="utf-8" ?><svg xmlns="http://www.w3.org/2000/svg" xmlns:xlink="http://www.w3.org/1999/xlink" width="266" height="266" viewBox="0 0 266 266"><defs><linearGradient id="gradient_0" gradientUnits="userSpaceOnUse" x1="210.38316" y1="261.34964" x2="214.23611" y2="33.859936"><stop offset="0" stop-color="#B8B7B7"/><stop offset="1" stop-color="#F5F5F5"/></linearGradient></defs><path fill="url(#gradient_0)" transform="scale(0.948148 0.946619)" d="M187.482 33.3573C202.661 32.2635 220.604 33.2787 235.925 33.2716C242.414 33.2686 248.693 38.3338 249.574 45.0509C250.964 55.6572 250.464 67.2195 250.512 78.0826L250.596 151.337L251.07 217.893C251.092 227.906 251.363 238.754 250.742 248.728C250.519 252.311 246.583 257.962 244.557 261.169C242.712 261.776 240.429 262.144 238.491 262.512L207.729 262.71C199.665 262.742 188.436 263.721 181.379 259.616C178.043 257.67 175.615 254.484 174.623 250.753C173.627 246.91 173.924 231.382 173.924 226.848L173.945 183.614L173.81 115.866C173.607 94.3517 173.721 72.7998 174.234 51.293C174.482 40.9042 177.153 35.9042 187.482 33.3573Z"/><defs><linearGradient id="gradient_1" gradientUnits="userSpaceOnUse" x1="133.5603" y1="261.36639" x2="128.58141" y2="33.604805"><stop offset="0" stop-color="#761413"/><stop offset="1" stop-color="#A72320"/></linearGradient></defs><path fill="url(#gradient_1)" transform="scale(0.948148 0.946619)" d="M135.523 32.9825C145.126 32.2984 159.554 31.1417 166.319 38.9174C170.252 43.4373 169.78 50.6262 169.791 56.3698L169.757 188.632L169.752 228.252C169.754 233.036 170.062 244.181 169.534 248.257C169.089 251.672 167.524 254.843 165.082 257.272C157.681 264.602 136.847 262.241 125.975 262.179L118.896 262.401C102.301 262.826 92.96 259.896 92.9377 241.306C92.8871 199.066 92.8857 156.827 92.9352 114.587L92.8614 73.7593C92.6142 30.0797 92.1226 33.1819 135.523 32.9825Z"/><path fill="#C47762" transform="scale(0.948148 0.946619)" d="M139.459 35.5695C140.325 35.5148 141.192 35.4851 142.06 35.4805C160.381 35.377 167.297 37.808 166.785 57.5843C166.595 64.9055 166.763 73.5827 166.751 81.0047L166.644 142.861C150.353 142.246 139.747 141.239 123.267 141.683C114.72 141.753 104.477 142.1 95.9928 142.799C96.0256 124.022 95.9122 105.245 95.6526 86.4696C95.5372 73.4002 95.3659 59.9666 96.7859 46.9827C97.2822 42.4443 102.162 37.129 106.548 36.4755C117.157 34.8949 128.605 35.878 139.459 35.5695Z"/><defs><linearGradient id="gradient_2" gradientUnits="userSpaceOnUse" x1="59.287029" y1="262.03748" x2="41.064217" y2="32.741241"><stop offset="0" stop-color="#1F1C1D"/><stop offset="1" stop-color="#3B3A3B"/></linearGradient></defs><path fill="url(#gradient_2)" transform="scale(0.948148 0.946619)" d="M31.0796 32.9335C43.2292 32.5919 75.3829 29.9208 83.8703 37.6597C87.011 40.5234 88.4593 43.8888 88.6372 48.0545C89.2272 61.8745 88.7444 75.8567 88.7228 89.6954L88.6668 165.98L88.7028 217.794C88.7244 227.304 88.9914 236.829 88.4737 246.322C87.849 257.78 80.1787 262.128 69.6409 262.467C59.4502 262.559 30.4885 262.573 21.2046 261.038C17.0694 257.638 15.0342 255.526 12.1743 251.004C11.3959 207.95 12.0717 163.52 12.051 120.365L11.9599 79.8744C11.8475 68.5987 11.4534 57.5363 12.4519 46.269C13.3641 35.9742 22.1427 33.4162 31.0796 32.9335Z"/><path fill="#8E8E8E" transform="scale(0.948148 0.946619)" d="M27.1395 35.9715C39.0054 35.0256 52.0554 36.1918 63.9525 35.7382C72.4331 35.4148 84.2773 36.9563 85.2654 47.4048C86.2371 57.6809 85.6405 68.6528 85.6204 79.0064L85.5744 143.724C78.3601 144.297 71.3872 145.225 64.213 146.147C47.6742 148.552 31.3205 152.093 15.2679 156.743C13.9154 145.457 15.0571 124.078 14.8892 112.056C14.9897 91.9277 14.4369 71.7828 15.0489 51.6631C15.3333 42.3091 17.9508 38.6247 27.1395 35.9715Z"/></svg>